<?xml version="1.0" encoding="UTF-8"?>
<svg version="1.1" xmlns="http://www.w3.org/2000/svg" width="400" height="175">
<path d="M0 0 C11.22 0 22.44 0 34 0 C34 0.99 34 1.98 34 3 C32.02 3 30.04 3 28 3 C28 13.56 28 24.12 28 35 C34.6 35 41.2 35 48 35 C48 24.44 48 13.88 48 3 C46.02 3 44.04 3 42 3 C41.505 1.515 41.505 1.515 41 0 C52.55 0 64.1 0 76 0 C75.67 0.99 75.34 1.98 75 3 C73.02 3 71.04 3 69 3 C69 25.77 69 48.54 69 72 C71.31 72 73.62 72 76 72 C76 72.66 76 73.32 76 74 C64.45 74 52.9 74 41 74 C41 73.34 41 72.68 41 72 C43.31 72 45.62 72 48 72 C48 60.78 48 49.56 48 38 C41.4 38 34.8 38 28 38 C28 49.22 28 60.44 28 72 C29.98 72 31.96 72 34 72 C34 72.66 34 73.32 34 74 C22.78 74 11.56 74 0 74 C0 73.34 0 72.68 0 72 C1.98 72 3.96 72 6 72 C6 49.23 6 26.46 6 3 C4.02 3 2.04 3 0 3 C0 2.01 0 1.02 0 0 Z " fill="#FFFFFF" transform="translate(72,21)"/>
<path d="M0 0 C6.95590127 -0.07641436 13.91169323 -0.1287523 20.86791992 -0.16479492 C23.23156784 -0.17982941 25.59518811 -0.20026242 27.95874023 -0.22631836 C31.36709441 -0.26293645 34.77507792 -0.27978031 38.18359375 -0.29296875 C39.23083115 -0.30845261 40.27806854 -0.32393646 41.35704041 -0.33988953 C49.04114301 -0.34163007 55.65917704 0.51215312 61.9375 5.1875 C66.1694123 10.9582895 66.46703352 16.78785557 65.52734375 23.671875 C64.71831065 27.24360631 63.49101655 29.31736679 61 32 C58.42330151 33.57656504 55.79038144 34.84862902 53 36 C53.928125 36.5775 54.85625 37.155 55.8125 37.75 C60.01999557 40.71999687 61.97420737 42.99750446 63 48 C63.1421701 49.58567839 63.24504041 51.17518632 63.31640625 52.765625 C63.37924805 54.09980469 63.37924805 54.09980469 63.44335938 55.4609375 C63.48267578 56.38132813 63.52199219 57.30171875 63.5625 58.25 C63.60568359 59.18585938 63.64886719 60.12171875 63.69335938 61.0859375 C63.7991805 63.39048641 63.90126557 65.69513839 64 68 C65.99763047 67.25191349 65.99763047 67.25191349 68 66 C69.29920746 62.45411499 69.29920746 62.45411499 70 59 C70.99 59 71.98 59 73 59 C72.54059385 64.32911133 71.9581605 68.39841701 69 73 C65.37689786 75.56161216 61.39792205 75.36715978 57.125 75.375 C56.43019531 75.39949219 55.73539063 75.42398438 55.01953125 75.44921875 C49.82638206 75.47855858 46.77505684 74.5769489 43 71 C39.75502928 64.91441143 39.54321388 58.3806206 39.4375 51.625 C39.40305442 49.86699983 39.36044348 48.10913546 39.30859375 46.3515625 C39.29626709 45.58666504 39.28394043 44.82176758 39.27124023 44.03369141 C39.11023578 41.68886885 39.11023578 41.68886885 37 39 C34.03 38.34 31.06 37.68 28 37 C28 48.55 28 60.1 28 72 C30.31 72 32.62 72 35 72 C35 72.66 35 73.32 35 74 C23.45 74 11.9 74 0 74 C0 73.34 0 72.68 0 72 C2.31 72 4.62 72 7 72 C7 49.23 7 26.46 7 3 C4.69 3 2.38 3 0 3 C0 2.01 0 1.02 0 0 Z M28 3 C28 13.56 28 24.12 28 35 C37.49152482 34.06317538 37.49152482 34.06317538 41 30 C43.63181011 21.96605335 44.193749 13.98437251 41 6 C39.53958234 3.88329643 39.53958234 3.88329643 37 3 C34.03 3 31.06 3 28 3 Z " fill="#FFFFFF" transform="translate(151,21)"/>
<path d="M0 0 C18.48 0 36.96 0 56 0 C56.65734875 5.25879001 57.11671041 9.79580053 57.0625 15 C57.05347656 16.134375 57.04445313 17.26875 57.03515625 18.4375 C57.02355469 19.283125 57.01195312 20.12875 57 21 C55.1796875 20.83203125 55.1796875 20.83203125 53 20 C51.5078125 17.63671875 51.5078125 17.63671875 50.125 14.6875 C47.64698142 9.9639683 46.0886082 7.12796343 41 5 C36.71 4.34 32.42 3.68 28 3 C28 13.56 28 24.12 28 35 C36.51616948 32.73568429 36.51616948 32.73568429 41 27 C42.25556887 23.82078213 42.25556887 23.82078213 43 21 C43.99 21 44.98 21 46 21 C46 31.56 46 42.12 46 53 C45.01 53 44.02 53 43 53 C42.75765625 52.31292969 42.5153125 51.62585938 42.265625 50.91796875 C41.93046875 50.01691406 41.5953125 49.11585937 41.25 48.1875 C40.92515625 47.29417969 40.6003125 46.40085938 40.265625 45.48046875 C38.80134132 42.61065351 37.79415298 41.58240297 35 40 C32.69 39.34 30.38 38.68 28 38 C28 48.89 28 59.78 28 71 C41.27517247 68.78747126 46.24080261 67.36272499 54 57 C55.27809677 54.6688534 56.13987344 52.52662176 57 50 C57.99 50 58.98 50 60 50 C60.02742013 52.31243128 60.04658282 54.62496094 60.0625 56.9375 C60.07410156 58.22527344 60.08570313 59.51304688 60.09765625 60.83984375 C59.99435252 65.24058254 59.48611418 69.6249724 59 74 C39.53 74 20.06 74 0 74 C0 73.01 0 72.02 0 71 C1.98 71 3.96 71 6 71 C6 48.56 6 26.12 6 3 C4.02 3 2.04 3 0 3 C0 2.01 0 1.02 0 0 Z " fill="#FFFFFF" transform="translate(338,21)"/>
<path d="M0 0 C20.79 0 41.58 0 63 0 C64.3308911 2.66178221 64.11268993 4.68739396 64.09765625 7.6640625 C64.09282227 9.34628906 64.09282227 9.34628906 64.08789062 11.0625 C64.07532227 12.8259375 64.07532227 12.8259375 64.0625 14.625 C64.05798828 15.80835938 64.05347656 16.99171875 64.04882812 18.2109375 C64.03701467 21.14067507 64.02054258 24.07031272 64 27 C63.01 27 62.02 27 61 27 C60.41992188 25.48019531 60.41992188 25.48019531 59.828125 23.9296875 C59.30246032 22.57797833 58.77639737 21.226424 58.25 19.875 C57.99734375 19.20984375 57.7446875 18.5446875 57.484375 17.859375 C55.78227872 13.51902949 54.05286545 9.58244415 51 6 C48.36 5.01 45.72 4.02 43 3 C43 25.44 43 47.88 43 71 C45.97 71 48.94 71 52 71 C52 71.99 52 72.98 52 74 C38.8 74 25.6 74 12 74 C12 73.01 12 72.02 12 71 C14.97 71 17.94 71 21 71 C21 48.56 21 26.12 21 3 C12.40066693 5.33816311 12.40066693 5.33816311 8.12890625 11.4609375 C5.86280949 16.55769491 3.88061746 21.75027637 2 27 C1.01 27 0.02 27 -1 27 C-1.02730648 24.1874326 -1.04698506 21.37513787 -1.0625 18.5625 C-1.07087891 17.77939453 -1.07925781 16.99628906 -1.08789062 16.18945312 C-1.09111328 15.40634766 -1.09433594 14.62324219 -1.09765625 13.81640625 C-1.10289307 13.10943604 -1.10812988 12.40246582 -1.11352539 11.67407227 C-0.94772075 7.76857071 -0.43167899 3.88511091 0 0 Z " fill="#FFFFFF" transform="translate(2,21)"/>
<path d="M0 0 C11.55 0 23.1 0 35 0 C35 0.99 35 1.98 35 3 C33.02 3.33 31.04 3.66 29 4 C34.28 19.51 39.56 35.02 45 51 C50.7191488 35.01772117 56.42201492 19.03208956 62 3 C59.69 3 57.38 3 55 3 C55 2.01 55 1.02 55 0 C60.61 0 66.22 0 72 0 C72 0.99 72 1.98 72 3 C71.22515762 3.05266022 70.45031525 3.10532043 69.6519928 3.15957642 C66.80690424 3.73656579 66.80690424 3.73656579 65.62840271 6.32406616 C65.27850784 7.35456085 64.92861298 8.38505554 64.56811523 9.44677734 C64.16096786 10.61244232 63.7538205 11.7781073 63.33433533 12.97909546 C62.90869184 14.26457832 62.48345517 15.55019595 62.05859375 16.8359375 C61.60633523 18.15400325 61.15220918 19.47142956 60.69630432 20.78823853 C59.49753158 24.26651797 58.32370836 27.75272389 57.1550293 31.24121094 C55.97502178 34.750318 54.77309347 38.25188089 53.57226562 41.75390625 C52.2166517 45.71070901 50.86318592 49.66812207 49.52671814 53.63143921 C47.11068353 60.79103953 44.61132312 67.90917547 42 75 C38.37 75 34.74 75 31 75 C28.04923734 67.09030282 25.10194732 59.17932386 22.15895367 51.26673317 C20.79196573 47.59174772 19.42383301 43.91719741 18.05297852 40.24365234 C16.7274693 36.69148745 15.40510516 33.13816582 14.08481789 29.58405685 C13.58322369 28.23543936 13.08054072 26.88722625 12.5766964 25.53944778 C9.79513065 18.09646185 7.14238531 10.65644368 5 3 C3.35 3 1.7 3 0 3 C0 2.01 0 1.02 0 0 Z " fill="#FFFFFF" transform="translate(264,21)"/>
<path d="M0 0 C10.89 0 21.78 0 33 0 C33 0.99 33 1.98 33 3 C31.02 3 29.04 3 27 3 C27 25.77 27 48.54 27 72 C28.98 72 30.96 72 33 72 C33 72.66 33 73.32 33 74 C22.11 74 11.22 74 0 74 C0 73.34 0 72.68 0 72 C1.98 72 3.96 72 6 72 C6 49.23 6 26.46 6 3 C4.02 3 2.04 3 0 3 C0 2.01 0 1.02 0 0 Z " fill="#FFFFFF" transform="translate(228,21)"/>
<path d="M0 0 C5.94 0 11.88 0 18 0 C22.64428333 4.64428333 23.15799751 5.59466522 23.25 11.8125 C23.27578125 12.85019531 23.3015625 13.88789062 23.328125 14.95703125 C22.96101749 18.36151636 21.9499248 20.22392285 20 23 C20.48082031 23.63292969 20.96164062 24.26585937 21.45703125 24.91796875 C23.53657657 29.07179471 23.56083017 32.72705203 23.6875 37.3125 C23.73874023 38.56643555 23.73874023 38.56643555 23.79101562 39.84570312 C23.87305461 41.89667772 23.9382151 43.94831538 24 46 C21.03 46 18.06 46 15 46 C14.93941406 44.86820313 14.87882812 43.73640625 14.81640625 42.5703125 C14.73200083 41.08852855 14.64735283 39.6067584 14.5625 38.125 C14.52318359 37.37863281 14.48386719 36.63226563 14.44335938 35.86328125 C14.28426376 31.80013136 14.28426376 31.80013136 13 28 C11.68 27.67 10.36 27.34 9 27 C9 33.27 9 39.54 9 46 C6.03 46 3.06 46 0 46 C0 30.82 0 15.64 0 0 Z M9 7 C9 11.29 9 15.58 9 20 C10.65 19.67 12.3 19.34 14 19 C14.2226746 17.56465159 14.42761906 16.12654475 14.625 14.6875 C14.79902344 13.48673828 14.79902344 13.48673828 14.9765625 12.26171875 C15.21533407 9.71276785 15.21533407 9.71276785 13 7 C11.68 7 10.36 7 9 7 Z " fill="#FFFFFF" transform="translate(309,108)"/>
<path d="M0 0 C3.66846898 2.64129767 5.23017614 4.62578482 6 9 C6.22078414 13.24340425 6.228154 17.48585096 6.24023438 21.73461914 C6.2499201 23.79549842 6.28096078 25.85537087 6.3125 27.91601562 C6.36238746 40.61860886 6.36238746 40.61860886 3 46 C-1.44860234 48.9657349 -5.78143535 48.64087636 -11 48 C-14.00197464 46.19881522 -15.45166366 45.09667268 -17 42 C-17.13536102 39.3598066 -17.21265301 36.74723936 -17.23828125 34.10546875 C-17.246353 33.3210994 -17.25442474 32.53673004 -17.26274109 31.72859192 C-17.27658062 30.06672373 -17.28730337 28.40482713 -17.29516602 26.74291992 C-17.31236353 24.20761865 -17.35624655 21.67362686 -17.40039062 19.13867188 C-17.41051915 17.52344708 -17.41903476 15.90821121 -17.42578125 14.29296875 C-17.44328934 13.53759323 -17.46079742 12.78221771 -17.47883606 12.00395203 C-17.46359334 8.28433459 -17.13058024 6.20297021 -15.09838867 3.04418945 C-10.81640701 -1.12719303 -5.70336814 -0.74069716 0 0 Z M-7 7 C-9.83259575 9.83259575 -9.25838261 11.7269466 -9.265625 15.6875 C-9.26753845 16.34580811 -9.2694519 17.00411621 -9.27142334 17.68237305 C-9.2727845 19.0743854 -9.26909283 20.46641047 -9.26074219 21.85839844 C-9.250041 23.99182589 -9.26063906 26.12441131 -9.2734375 28.2578125 C-9.27211589 29.60937686 -9.26955347 30.9609407 -9.265625 32.3125 C-9.26336914 33.54613281 -9.26111328 34.77976562 -9.25878906 36.05078125 C-9.30769767 39.12069578 -9.30769767 39.12069578 -7 41 C-5.02 40.505 -5.02 40.505 -3 40 C-3 29.44 -3 18.88 -3 8 C-4.32 7.67 -5.64 7.34 -7 7 Z " fill="#FFFFFF" transform="translate(275,107)"/>
<path d="M0 0 C17 0 17 0 22 4 C23.50784145 7.01568291 23.20421112 10.14684034 23.23828125 13.45703125 C23.246353 14.19700851 23.25442474 14.93698578 23.26274109 15.6993866 C23.27657883 17.26709655 23.28730238 18.83483659 23.29516602 20.40258789 C23.31236022 22.79306632 23.35624349 25.18215459 23.40039062 27.57226562 C23.41051956 29.09634401 23.41903503 30.62043414 23.42578125 32.14453125 C23.44328934 32.85615921 23.46079742 33.56778717 23.47883606 34.30097961 C23.46311258 37.92271131 23.09015263 39.86116564 21.09838867 42.9284668 C14.7470468 49.19852332 12.19821303 46 0 46 C0 30.82 0 15.64 0 0 Z M8 7 C8 17.56 8 28.12 8 39 C9.65 39 11.3 39 13 39 C15.75944605 36.24055395 15.25805677 34.60763302 15.265625 30.75 C15.26949219 28.87828125 15.26949219 28.87828125 15.2734375 26.96875 C15.26570313 25.6590625 15.25796875 24.349375 15.25 23 C15.25773437 21.6903125 15.26546875 20.380625 15.2734375 19.03125 C15.27085938 17.7834375 15.26828125 16.535625 15.265625 15.25 C15.26336914 14.10015625 15.26111328 12.9503125 15.25878906 11.765625 C15.28343676 8.85800168 15.28343676 8.85800168 13 7 C11.35 7 9.7 7 8 7 Z " fill="#FFFFFF" transform="translate(70,108)"/>
<path d="M0 0 C3.96 0 7.92 0 12 0 C12.99994478 6.0684339 13.99678087 12.13736709 14.99072266 18.20678711 C15.32938322 20.2720321 15.66889715 22.33713734 16.00927734 24.40209961 C16.4980074 27.36796439 16.9836797 30.33431601 17.46875 33.30078125 C17.62186646 34.2258699 17.77498291 35.15095856 17.93273926 36.1040802 C18.07288452 36.96474594 18.21302979 37.82541168 18.35742188 38.7121582 C18.48177612 39.46938675 18.60613037 40.2266153 18.73425293 41.00679016 C19 43 19 43 19 46 C12.84765625 46.09765625 12.84765625 46.09765625 11 46 C9.03177114 44.03177114 9.33751619 40.65191291 9 38 C6.69 37.67 4.38 37.34 2 37 C1.67 39.97 1.34 42.94 1 46 C-1.64 46 -4.28 46 -7 46 C-4.86702421 30.63287896 -2.49104789 15.31298983 0 0 Z M5 13 C4.34 18.61 3.68 24.22 3 30 C4.65 30 6.3 30 8 30 C7.88556397 27.9160597 7.75804453 25.83283507 7.625 23.75 C7.52058594 22.00976562 7.52058594 22.00976562 7.4140625 20.234375 C7.14839601 16.74676483 7.14839601 16.74676483 5 13 Z " fill="#FFFFFF" transform="translate(24,108)"/>
<path d="M0 0 C3.61691275 2.09780939 4.68291409 3.04874226 6 7 C6.03954234 9.33299825 6.04401732 11.66708189 6 14 C3.36 14 0.72 14 -2 14 C-2.66 12.02 -3.32 10.04 -4 8 C-4.99 8.33 -5.98 8.66 -7 9 C-7.08756222 13.11542421 -6.787964 15.09454634 -4.03515625 18.2578125 C-2.41761402 19.80457088 -0.79513821 21.34618506 0.83203125 22.8828125 C4.98708147 26.94053722 6.14911586 30.39029837 6.375 36.0625 C6.2460916 40.14459924 5.70521985 42.79381351 3 46 C-1.47426497 48.98284332 -5.75901675 48.71258983 -11 48 C-14.125 46.125 -14.125 46.125 -16 43 C-16.66747366 39.66263169 -16.92739418 36.39927229 -17 33 C-14.36 33 -11.72 33 -9 33 C-8.34 35.31 -7.68 37.62 -7 40 C-5.02 39.505 -5.02 39.505 -3 39 C-3.54298542 32.07693584 -5.70659464 29.23746865 -10.5625 24.5 C-15.6546396 19.27729272 -16.33056883 15.78004101 -16.30078125 8.62109375 C-15.98849066 5.8997043 -15.49342638 4.28259484 -14 2 C-9.54757426 -0.96828383 -5.22223487 -0.63369224 0 0 Z " fill="#FFFFFF" transform="translate(376,107)"/>
<path d="M0 0 C2.91882857 1.68298413 3.36349779 2.8398578 5 6 C5.37281232 8.81120645 5.24626691 11.14330379 5 14 C2.36 14 -0.28 14 -3 14 C-3.33 12.02 -3.66 10.04 -4 8 C-5.32 8.33 -6.64 8.66 -8 9 C-7.64646127 14.86585691 -6.40117759 17.27210803 -2.0625 21.1875 C4.68703332 27.35433979 4.68703332 27.35433979 5.3359375 32.83984375 C5.44197531 41.24864198 5.44197531 41.24864198 3.125 45.1875 C-0.86811314 48.59339062 -4.25696361 48.32636149 -9.359375 48.29296875 C-12 48 -12 48 -14.625 46.125 C-16.70373092 42.91241585 -17.11681237 41.17686557 -17.0625 37.375 C-17.05347656 36.55773437 -17.04445312 35.74046875 -17.03515625 34.8984375 C-17.02355469 34.27195313 -17.01195312 33.64546875 -17 33 C-14.36 33 -11.72 33 -9 33 C-8.67 35.31 -8.34 37.62 -8 40 C-6.02 39.505 -6.02 39.505 -4 39 C-4.14603642 31.99025167 -7.28499384 28.91103486 -12 24 C-16.50351902 18.54837171 -17.33915026 15.7543294 -17.29296875 8.70703125 C-16.90428228 5.11556825 -15.68553733 3.36959176 -13 1 C-9.01043632 -0.99478184 -4.32757983 -0.6422777 0 0 Z " fill="#FFFFFF" transform="translate(225,107)"/>
<path d="M0 0 C2.64 0 5.28 0 8 0 C9.83088877 8.27795453 10.94650498 16.59445466 12 25 C13.62579725 23.37420275 13.43595161 21.40037487 13.71875 19.16015625 C13.84636719 18.17982422 13.97398437 17.19949219 14.10546875 16.18945312 C14.23566406 15.15755859 14.36585938 14.12566406 14.5 13.0625 C14.75713725 11.03213407 15.01740107 9.0021609 15.28125 6.97265625 C15.39533203 6.06781494 15.50941406 5.16297363 15.62695312 4.23071289 C16 2 16 2 17 0 C19.31 0 21.62 0 24 0 C23.41173235 10.21933646 22.0248865 20.21044741 20.4375 30.3125 C20.20072313 31.8430296 19.96439236 33.37362829 19.72851562 34.90429688 C19.15746728 38.60367257 18.58044746 42.30208594 18 46 C14.37 46 10.74 46 7 46 C5.62524231 40.75029463 4.51094391 35.5459107 3.7109375 30.17578125 C3.60278717 29.46648972 3.49463684 28.75719818 3.38320923 28.02641296 C3.15788324 26.54190091 2.93446174 25.05709861 2.71289062 23.57202148 C2.3741599 21.3068821 2.0273223 19.04308491 1.6796875 16.77929688 C1.46045322 15.32819808 1.24168682 13.87702851 1.0234375 12.42578125 C0.92034271 11.7548494 0.81724792 11.08391754 0.71102905 10.39265442 C0.19511615 6.89724605 -0.11101386 3.53337633 0 0 Z " fill="#FFFFFF" transform="translate(120,108)"/>
<path d="M0 0 C2.97 0 5.94 0 9 0 C9 15.18 9 30.36 9 46 C6.03 46 3.06 46 0 46 C0 30.82 0 15.64 0 0 Z " fill="#FFFFFF" transform="translate(171,108)"/>
</svg>
